name C:\Users\antoi\Documents\MyRepositories\upper-imu-dc\Results\main_tracking\Case_79\ABD01_angularVelocities_groundFrame.mot
datacolumns 4
datarows 117
range 4.63000000 5.79000000
endheader 
time	radius_imu_x	radius_imu_y	radius_imu_z	
          4.63000000	         -0.84831472	         -0.09173686	          0.03577006	
          4.64000000	         -0.84418947	         -0.08848891	          0.03185853	
          4.65000000	         -0.83987277	         -0.08543745	          0.02749005	
          4.66000000	         -0.83542662	         -0.08261394	          0.02325825	
          4.67000000	         -0.83090758	         -0.08001515	          0.01970549	
          4.68000000	         -0.82636653	         -0.07760367	          0.01727142	
          4.69000000	         -0.82184807	         -0.07531319	          0.01625480	
          4.70000000	         -0.81738882	         -0.07305831	          0.01679134	
          4.71000000	         -0.81301571	         -0.07074511	          0.01885345	
          4.72000000	         -0.80874560	         -0.06827876	          0.02227082	
          4.73000000	         -0.80458516	         -0.06556818	          0.02676032	
          4.74000000	         -0.80053122	         -0.06252998	          0.03195780	
          4.75000000	         -0.79657062	         -0.05909510	          0.03745126	
          4.76000000	         -0.79267896	         -0.05521788	          0.04281093	
          4.77000000	         -0.78882216	         -0.05087963	          0.04761637	
          4.78000000	         -0.78496082	         -0.04608903	          0.05148008	
          4.79000000	         -0.78105529	         -0.04088371	          0.05407037	
          4.80000000	         -0.77707207	         -0.03532911	          0.05513362	
          4.81000000	         -0.77299014	         -0.02951434	          0.05450839	
          4.82000000	         -0.76880619	         -0.02354516	          0.05213227	
          4.83000000	         -0.76453730	         -0.01753542	          0.04804209	
          4.84000000	         -0.76022226	         -0.01159673	          0.04235993	
          4.85000000	         -0.75591921	         -0.00583148	          0.03527620	
          4.86000000	         -0.75169918	         -0.00033098	          0.02703397	
          4.87000000	         -0.74764465	          0.00483112	          0.01790236	
          4.88000000	         -0.74384630	          0.00960654	          0.00815728	
          4.89000000	         -0.74039428	          0.01397199	         -0.00193000	
          4.90000000	         -0.73736821	          0.01792518	         -0.01210202	
          4.91000000	         -0.73482585	          0.02147864	         -0.02211214	
          4.92000000	         -0.73280144	          0.02465214	         -0.03172476	
          4.93000000	         -0.73129179	          0.02747536	         -0.04072328	
          4.94000000	         -0.73024407	          0.02998724	         -0.04891390	
          4.95000000	         -0.72956978	          0.03223424	         -0.05613738	
          4.96000000	         -0.72915844	          0.03427659	         -0.06229179	
          4.97000000	         -0.72887193	          0.03617238	         -0.06731955	
          4.98000000	         -0.72856146	          0.03797728	         -0.07120963	
          4.99000000	         -0.72809409	          0.03975422	         -0.07399510	
          5.00000000	         -0.72734770	          0.04156414	         -0.07572732	
          5.01000000	         -0.72622855	          0.04346795	         -0.07646359	
          5.02000000	         -0.72468712	          0.04553136	         -0.07624371	
          5.03000000	         -0.72271043	          0.04782164	         -0.07507617	
          5.04000000	         -0.72030316	          0.05039875	         -0.07291393	
          5.05000000	         -0.71750445	          0.05333067	         -0.06966991	
          5.06000000	         -0.71438096	          0.05669240	         -0.06523422	
          5.07000000	         -0.71099608	          0.06055043	         -0.05947183	
          5.08000000	         -0.70740806	          0.06496202	         -0.05225685	
          5.09000000	         -0.70366505	          0.06997223	         -0.04350159	
          5.10000000	         -0.69980221	          0.07560996	         -0.03317531	
          5.11000000	         -0.69583531	          0.08187959	         -0.02130389	
          5.12000000	         -0.69176662	          0.08876478	         -0.00798530	
          5.13000000	         -0.68759357	          0.09623514	          0.00660999	
          5.14000000	         -0.68330662	          0.10424108	          0.02225445	
          5.15000000	         -0.67889090	          0.11271315	          0.03867069	
          5.16000000	         -0.67432840	          0.12156659	          0.05554703	
          5.17000000	         -0.66959995	          0.13070618	          0.07255218	
          5.18000000	         -0.66468987	          0.14003160	          0.08935799	
          5.19000000	         -0.65958975	          0.14944028	          0.10566685	
          5.20000000	         -0.65430147	          0.15882934	          0.12123404	
          5.21000000	         -0.64884244	          0.16810110	          0.13589319	
          5.22000000	         -0.64324864	          0.17716844	          0.14955321	
          5.23000000	         -0.63757360	          0.18593910	          0.16218038	
          5.24000000	         -0.63188164	          0.19430671	          0.17378417	
          5.25000000	         -0.62628211	          0.20218978	          0.18438393	
          5.26000000	         -0.62089494	          0.20951907	          0.19401229	
          5.27000000	         -0.61580504	          0.21618943	          0.20266430	
          5.28000000	         -0.61109654	          0.22213575	          0.21036223	
          5.29000000	         -0.60685504	          0.22733420	          0.21714466	
          5.30000000	         -0.60314474	          0.23165245	          0.22283443	
          5.31000000	         -0.60002902	          0.23491260	          0.22717066	
          5.32000000	         -0.59751779	          0.23704443	          0.22998875	
          5.33000000	         -0.59562114	          0.23810219	          0.23129627	
          5.34000000	         -0.59439314	          0.23796517	          0.23089899	
          5.35000000	         -0.59377789	          0.23654698	          0.22862764	
          5.36000000	         -0.59364832	          0.23383309	          0.22437284	
          5.37000000	         -0.59392625	          0.22995788	          0.21825653	
          5.38000000	         -0.59449678	          0.22497637	          0.21031127	
          5.39000000	         -0.59522911	          0.21895317	          0.20060856	
          5.40000000	         -0.59599571	          0.21215155	          0.18949015	
          5.41000000	         -0.59667268	          0.20476334	          0.17720836	
          5.42000000	         -0.59716167	          0.19697232	          0.16400484	
          5.43000000	         -0.59739891	          0.18900066	          0.15016259	
          5.44000000	         -0.59735487	          0.18107024	          0.13594378	
          5.45000000	         -0.59703487	          0.17339774	          0.12157009	
          5.46000000	         -0.59647476	          0.16618322	          0.10722375	
          5.47000000	         -0.59572863	          0.15958355	          0.09302047	
          5.48000000	         -0.59486179	          0.15371227	          0.07902164	
          5.49000000	         -0.59394594	          0.14865825	          0.06526821	
          5.50000000	         -0.59305649	          0.14447969	          0.05178005	
          5.51000000	         -0.59226672	          0.14120019	          0.03859001	
          5.52000000	         -0.59164347	          0.13883417	          0.02574826	
          5.53000000	         -0.59125768	          0.13739059	          0.01332751	
          5.54000000	         -0.59119288	          0.13687134	          0.00140800	
          5.55000000	         -0.59153694	          0.13727214	         -0.00989840	
          5.56000000	         -0.59238105	          0.13858606	         -0.02045906	
          5.57000000	         -0.59381405	          0.14081162	         -0.03017269	
          5.58000000	         -0.59591357	          0.14395591	         -0.03894153	
          5.59000000	         -0.59872800	          0.14800464	         -0.04666695	
          5.60000000	         -0.60226612	          0.15292228	         -0.05326942	
          5.61000000	         -0.60649245	          0.15866396	         -0.05868959	
          5.62000000	         -0.61131979	          0.16515934	         -0.06288887	
          5.63000000	         -0.61661324	          0.17231809	         -0.06585239	
          5.64000000	         -0.62219978	          0.18003439	         -0.06758905	
          5.65000000	         -0.62788192	          0.18817828	         -0.06814337	
          5.66000000	         -0.63345371	          0.19659609	         -0.06759259	
          5.67000000	         -0.63871961	          0.20511790	         -0.06605966	
          5.68000000	         -0.64350473	          0.21355024	         -0.06370281	
          5.69000000	         -0.64766968	          0.22168500	         -0.06071261	
          5.70000000	         -0.65111535	          0.22931659	         -0.05730311	
          5.71000000	         -0.65377670	          0.23624782	         -0.05368380	
          5.72000000	         -0.65562301	          0.24231028	         -0.05007041	
          5.73000000	         -0.65665748	          0.24737272	         -0.04666356	
          5.74000000	         -0.65691172	          0.25134312	         -0.04363175	
          5.75000000	         -0.65644070	          0.25417276	         -0.04111124	
          5.76000000	         -0.65532058	          0.25585140	         -0.03920090	
          5.77000000	         -0.65364550	          0.25640681	         -0.03795942	
          5.78000000	         -0.65152562	          0.25590097	         -0.03740355	
          5.79000000	         -0.64908514	          0.25442608	         -0.03750930	
